<svg width="56" height="27" viewBox="0 0 56 27" fill="none" xmlns="http://www.w3.org/2000/svg">
<rect y="0.5625" width="56" height="26" rx="13" fill="#2268B4"/>
<path d="M29.2423 10.2377H28.0763V13.5625H27.2485V10.2377H26.0825V9.57225H29.2423V10.2377ZM30.5678 10.2185V11.2442H31.8988V11.8685H30.5678V12.9162H32.2783V13.5625H29.7373V9.57225H32.2783V10.2185H30.5678ZM35.002 12.0473L34.5703 10.8262C34.5446 10.7621 34.5171 10.6869 34.4878 10.6007C34.4603 10.5146 34.4337 10.4211 34.408 10.3202C34.3824 10.4229 34.3549 10.5182 34.3255 10.6062C34.298 10.6924 34.2715 10.7676 34.2458 10.8317L33.8168 12.0473H35.002ZM36.388 13.5625H35.7473C35.6758 13.5625 35.6171 13.546 35.5713 13.513C35.5273 13.4782 35.4943 13.4342 35.4723 13.381L35.2028 12.6192H33.6133L33.3438 13.381C33.3255 13.4268 33.2934 13.469 33.2475 13.5075C33.2017 13.5442 33.144 13.5625 33.0743 13.5625H32.428L33.9873 9.57225H34.8315L36.388 13.5625ZM41.1574 9.57225V13.5625H40.4286V11.1122C40.4286 11.0609 40.4295 11.0059 40.4314 10.9472C40.435 10.8886 40.4405 10.829 40.4479 10.7685L39.3066 12.9327C39.2443 13.0519 39.148 13.1115 39.0179 13.1115H38.9024C38.8382 13.1115 38.7814 13.0968 38.7319 13.0675C38.6824 13.0363 38.6429 12.9914 38.6136 12.9327L37.4669 10.7602C37.4724 10.8244 37.4769 10.8867 37.4806 10.9472C37.4843 11.0059 37.4861 11.0609 37.4861 11.1122V13.5625H36.7574V9.57225H37.3844C37.4192 9.57225 37.4504 9.57317 37.4779 9.575C37.5054 9.57683 37.5292 9.58233 37.5494 9.5915C37.5714 9.59883 37.5906 9.61167 37.6071 9.63C37.6254 9.6465 37.6429 9.67033 37.6594 9.7015L38.7759 11.83C38.8107 11.8942 38.8428 11.9602 38.8721 12.028C38.9033 12.0958 38.9326 12.1655 38.9601 12.237C38.9876 12.1637 39.016 12.0922 39.0454 12.0225C39.0765 11.9528 39.1095 11.8859 39.1444 11.8217L40.2526 9.7015C40.2691 9.67033 40.2865 9.6465 40.3049 9.63C40.3232 9.61167 40.3424 9.59883 40.3626 9.5915C40.3846 9.58233 40.4084 9.57683 40.4341 9.575C40.4616 9.57317 40.4937 9.57225 40.5304 9.57225H41.1574ZM42.4893 9.57225V10.3615L42.4233 10.7932C42.4086 10.8812 42.3821 10.9491 42.3436 10.9967C42.3069 11.0444 42.2455 11.0682 42.1593 11.0682C42.0841 11.0682 42.0264 11.0444 41.9861 10.9967C41.9457 10.9491 41.9164 10.8812 41.8981 10.7932L41.8293 10.3615V9.57225H42.4893ZM45.3319 10.3367C45.3063 10.3789 45.2797 10.4101 45.2522 10.4302C45.2265 10.4486 45.1926 10.4577 45.1504 10.4577C45.1101 10.4577 45.0661 10.444 45.0184 10.4165C44.9726 10.3872 44.9185 10.356 44.8562 10.323C44.7939 10.29 44.7224 10.2597 44.6417 10.2322C44.561 10.2029 44.4666 10.1882 44.3584 10.1882C44.1678 10.1882 44.0248 10.2313 43.9294 10.3175C43.8341 10.4018 43.7864 10.5127 43.7864 10.6502C43.7864 10.7382 43.8121 10.8116 43.8634 10.8702C43.9166 10.9271 43.9854 10.9766 44.0697 11.0187C44.1559 11.0609 44.253 11.0985 44.3612 11.1315C44.4694 11.1645 44.5803 11.2012 44.6939 11.2415C44.8076 11.28 44.9185 11.3258 45.0267 11.379C45.1349 11.4322 45.2311 11.4991 45.3154 11.5797C45.4016 11.6604 45.4704 11.7594 45.5217 11.8767C45.5749 11.9922 45.6014 12.1334 45.6014 12.3002C45.6014 12.4817 45.5694 12.6522 45.5052 12.8117C45.4429 12.9694 45.3521 13.1078 45.2329 13.227C45.1138 13.3443 44.9662 13.4369 44.7902 13.5047C44.616 13.5726 44.418 13.6065 44.1962 13.6065C44.0697 13.6065 43.9432 13.5937 43.8167 13.568C43.692 13.5423 43.571 13.5066 43.4537 13.4607C43.3382 13.4149 43.2291 13.3599 43.1264 13.2957C43.0238 13.2316 42.9339 13.1601 42.8569 13.0812L43.0989 12.6907C43.1191 12.6614 43.1457 12.6376 43.1787 12.6192C43.2117 12.5991 43.2465 12.589 43.2832 12.589C43.3327 12.589 43.3849 12.6073 43.4399 12.644C43.4949 12.6807 43.5582 12.721 43.6297 12.765C43.7012 12.809 43.7837 12.8493 43.8772 12.886C43.9725 12.9227 44.0862 12.941 44.2182 12.941C44.4107 12.941 44.5592 12.897 44.6637 12.809C44.77 12.721 44.8232 12.5899 44.8232 12.4157C44.8232 12.3149 44.7966 12.2333 44.7434 12.171C44.6921 12.1087 44.6243 12.0564 44.5399 12.0142C44.4556 11.9721 44.3594 11.9363 44.2512 11.907C44.143 11.8758 44.0321 11.8419 43.9184 11.8052C43.8048 11.7686 43.6939 11.7246 43.5857 11.6732C43.4775 11.6219 43.3813 11.5541 43.2969 11.4697C43.2126 11.3854 43.1439 11.2809 43.0907 11.1562C43.0394 11.0316 43.0137 10.8767 43.0137 10.6915C43.0137 10.543 43.043 10.3991 43.1017 10.2597C43.1604 10.1204 43.2465 9.99667 43.3602 9.8885C43.4739 9.78033 43.6132 9.69325 43.7782 9.62725C43.945 9.56125 44.1357 9.52825 44.3502 9.52825C44.5904 9.52825 44.8122 9.56583 45.0157 9.641C45.221 9.71433 45.3943 9.817 45.5354 9.949L45.3319 10.3367ZM26.908 16.1305V16.9325H27.952V17.4045H26.908V18.5625H26.304V15.6605H28.152V16.1305H26.908ZM29.8633 17.4605L29.5493 16.5725C29.5307 16.5258 29.5107 16.4712 29.4893 16.4085C29.4693 16.3458 29.45 16.2778 29.4313 16.2045C29.4127 16.2792 29.3927 16.3485 29.3713 16.4125C29.3513 16.4752 29.332 16.5298 29.3133 16.5765L29.0013 17.4605H29.8633ZM30.8713 18.5625H30.4053C30.3533 18.5625 30.3107 18.5505 30.2773 18.5265C30.2453 18.5012 30.2213 18.4692 30.2053 18.4305L30.0093 17.8765H28.8533L28.6573 18.4305C28.644 18.4638 28.6207 18.4945 28.5873 18.5225C28.554 18.5492 28.512 18.5625 28.4613 18.5625H27.9913L29.1253 15.6605H29.7393L30.8713 18.5625ZM33.4456 15.6605L32.2776 18.5625H31.7336L30.5656 15.6605H31.0496C31.1016 15.6605 31.1436 15.6732 31.1756 15.6985C31.2089 15.7225 31.2336 15.7538 31.2496 15.7925L31.8776 17.4645C31.9016 17.5272 31.9249 17.5958 31.9476 17.6705C31.9716 17.7438 31.9936 17.8212 32.0136 17.9025C32.0309 17.8212 32.0496 17.7438 32.0696 17.6705C32.0909 17.5958 32.1136 17.5272 32.1376 17.4645L32.7616 15.7925C32.7749 15.7592 32.7982 15.7292 32.8316 15.7025C32.8662 15.6745 32.9089 15.6605 32.9596 15.6605H33.4456ZM36.4166 17.1105C36.4166 17.3225 36.3806 17.5192 36.3086 17.7005C36.2379 17.8818 36.1373 18.0385 36.0066 18.1705C35.8773 18.3025 35.7213 18.4065 35.5386 18.4825C35.3559 18.5572 35.1533 18.5945 34.9306 18.5945C34.7079 18.5945 34.5053 18.5572 34.3226 18.4825C34.1399 18.4065 33.9833 18.3025 33.8526 18.1705C33.7219 18.0385 33.6206 17.8818 33.5486 17.7005C33.4779 17.5192 33.4426 17.3225 33.4426 17.1105C33.4426 16.8985 33.4779 16.7025 33.5486 16.5225C33.6206 16.3412 33.7219 16.1845 33.8526 16.0525C33.9833 15.9205 34.1399 15.8172 34.3226 15.7425C34.5053 15.6665 34.7079 15.6285 34.9306 15.6285C35.1533 15.6285 35.3559 15.6665 35.5386 15.7425C35.7213 15.8172 35.8773 15.9212 36.0066 16.0545C36.1373 16.1865 36.2379 16.3432 36.3086 16.5245C36.3806 16.7045 36.4166 16.8998 36.4166 17.1105ZM35.8026 17.1105C35.8026 16.9585 35.7826 16.8225 35.7426 16.7025C35.7026 16.5812 35.6446 16.4785 35.5686 16.3945C35.4939 16.3092 35.4026 16.2445 35.2946 16.2005C35.1879 16.1552 35.0666 16.1325 34.9306 16.1325C34.7946 16.1325 34.6726 16.1552 34.5646 16.2005C34.4566 16.2445 34.3646 16.3092 34.2886 16.3945C34.2139 16.4785 34.1566 16.5812 34.1166 16.7025C34.0766 16.8225 34.0566 16.9585 34.0566 17.1105C34.0566 17.2638 34.0766 17.4012 34.1166 17.5225C34.1566 17.6425 34.2139 17.7445 34.2886 17.8285C34.3646 17.9125 34.4566 17.9772 34.5646 18.0225C34.6726 18.0665 34.7946 18.0885 34.9306 18.0885C35.0666 18.0885 35.1879 18.0665 35.2946 18.0225C35.4026 17.9772 35.4939 17.9125 35.5686 17.8285C35.6446 17.7445 35.7026 17.6425 35.7426 17.5225C35.7826 17.4012 35.8026 17.2638 35.8026 17.1105ZM37.7628 17.0345C37.8601 17.0345 37.9441 17.0225 38.0148 16.9985C38.0854 16.9732 38.1434 16.9392 38.1888 16.8965C38.2341 16.8525 38.2674 16.8012 38.2888 16.7425C38.3101 16.6838 38.3208 16.6198 38.3208 16.5505C38.3208 16.4132 38.2748 16.3065 38.1828 16.2305C38.0921 16.1545 37.9534 16.1165 37.7668 16.1165H37.4548V17.0345H37.7628ZM39.1688 18.5625H38.6268C38.5254 18.5625 38.4521 18.5238 38.4068 18.4465L37.8548 17.5565C37.8321 17.5218 37.8068 17.4965 37.7788 17.4805C37.7521 17.4645 37.7121 17.4565 37.6588 17.4565H37.4548V18.5625H36.8548V15.6605H37.7668C37.9694 15.6605 38.1428 15.6818 38.2868 15.7245C38.4308 15.7658 38.5488 15.8238 38.6408 15.8985C38.7328 15.9732 38.8001 16.0625 38.8428 16.1665C38.8854 16.2692 38.9068 16.3825 38.9068 16.5065C38.9068 16.6025 38.8928 16.6938 38.8648 16.7805C38.8381 16.8658 38.7988 16.9438 38.7468 17.0145C38.6948 17.0852 38.6308 17.1478 38.5548 17.2025C38.4788 17.2572 38.3921 17.3012 38.2948 17.3345C38.3334 17.3558 38.3694 17.3818 38.4028 17.4125C38.4361 17.4418 38.4661 17.4772 38.4928 17.5185L39.1688 18.5625ZM40.0564 18.5625H39.4524V15.6605H40.0564V18.5625ZM42.7174 16.1445H41.8694V18.5625H41.2674V16.1445H40.4194V15.6605H42.7174V16.1445ZM43.6814 16.1305V16.8765H44.6494V17.3305H43.6814V18.0925H44.9254V18.5625H43.0774V15.6605H44.9254V16.1305H43.6814Z" fill="white"/>
<path fill-rule="evenodd" clip-rule="evenodd" d="M18.0111 7.66249V10.4625H21.973C22.176 10.4602 22.377 10.502 22.5621 10.5851C22.7473 10.6682 22.9122 10.7906 23.0453 10.9437C23.1785 11.0969 23.2768 11.2771 23.3334 11.472C23.3899 11.6669 23.4035 11.8718 23.373 12.0725L22.407 18.3724C22.3564 18.7062 22.1868 19.0105 21.9296 19.2292C21.6723 19.4479 21.3447 19.5662 21.007 19.5624H14.1112L14.1112 9.61225L15.9111 5.5625C16.468 5.5625 17.0022 5.78375 17.396 6.17757C17.7898 6.5714 18.0111 7.10554 18.0111 7.66249ZM12.1112 19.5624H11.0111C10.6398 19.5624 10.2837 19.4149 10.0212 19.1524C9.75861 18.8898 9.61111 18.5337 9.61111 18.1624V13.2625C9.61111 12.8911 9.75861 12.5351 10.0212 12.2725C10.2837 12.01 10.6398 11.8625 11.0111 11.8625H12.1112L12.1112 19.5624Z" fill="white"/>
</svg>
